Coordinates
version=1
nRows=12
nColumns=34
inDegrees=no

Units are S.I. units (second, meters, Newtons, ...)
If the header above contains a line with 'inDegrees', this indicates whether rotational values are in degrees (yes) or radians (no).

endheader
time	pelvis_tilt	pelvis_list	pelvis_rotation	pelvis_tx	pelvis_ty	pelvis_tz	hip_flexion_r	hip_adduction_r	hip_rotation_r	knee_angle_r	ankle_angle_r	subtalar_angle_r	mtp_angle_r	hip_flexion_l	hip_adduction_l	hip_rotation_l	knee_angle_l	ankle_angle_l	subtalar_angle_l	mtp_angle_l	lumbar_extension	lumbar_bending	lumbar_rotation	arm_flex_r	arm_add_r	arm_rot_r	elbow_flex_r	pro_sup_r	arm_flex_l	arm_add_l	arm_rot_l	elbow_flex_l	pro_sup_l
0.48	0.227577	-0.0526847	0.0128392	0.302487	1.07576	-0.186323	-0.340895	0.134535	-0.0373687	0.0657062	0.256522	0.152096	-0.092663	0.240456	-0.135082	-0.209308	0.518313	0.138229	-0.0228386	-0.0975473	-0.480693	0.0181857	0.154986	0.126735	-0.241565	-0.136641	0.983126	1.47389	-0.173534	-0.0710504	-0.142601	0.505911	1.50324
0.49	0.227371	-0.0507103	0.0116032	0.315786	1.07387	-0.186509	-0.356355	0.131657	-0.0404833	0.0656484	0.27221	0.162149	-0.0927061	0.239854	-0.128706	-0.234569	0.462083	0.14368	0.0244461	-0.0975315	-0.480593	0.0151199	0.15699	0.139535	-0.248884	-0.130731	0.996775	1.47473	-0.190581	-0.0663237	-0.148408	0.495258	1.51071
0.5	0.226968	-0.0483813	0.0112974	0.329211	1.07182	-0.186845	-0.371289	0.128504	-0.0456861	0.0662988	0.288147	0.173114	-0.0927492	0.238749	-0.120554	-0.258654	0.406457	0.151843	0.0770904	-0.0975155	-0.480112	0.0121441	0.158053	0.151541	-0.255994	-0.125034	1.00978	1.47728	-0.20818	-0.0619925	-0.153767	0.487337	1.51618
0.51	0.226424	-0.0456636	0.0116983	0.342772	1.06966	-0.187321	-0.385627	0.124972	-0.0529291	0.0678649	0.304223	0.185059	-0.0927923	0.237031	-0.110539	-0.28069	0.35175	0.162106	0.131978	-0.0974996	-0.479324	0.00914597	0.158518	0.162557	-0.262893	-0.119853	1.02227	1.48136	-0.225997	-0.0581057	-0.158317	0.481593	1.51956
0.52	0.225816	-0.0425938	0.0125056	0.356485	1.06741	-0.187924	-0.399345	0.120992	-0.0620181	0.0705198	0.32025	0.198013	-0.0928354	0.234588	-0.0987941	-0.299967	0.298453	0.173702	0.185789	-0.0974836	-0.478319	0.0060483	0.158816	0.172377	-0.269586	-0.115471	1.03441	1.48669	-0.243679	-0.0546856	-0.161808	0.47741	1.52096
0.53	0.22523	-0.0392737	0.013378	0.370364	1.06512	-0.188633	-0.41246	0.116536	-0.0726329	0.0743982	0.335973	0.211953	-0.0928785	0.23135	-0.0856747	-0.316021	0.247299	0.185835	0.235432	-0.0974676	-0.477187	0.0028152	0.159407	0.180803	-0.276079	-0.112131	1.0463	1.49298	-0.260894	-0.0517269	-0.164139	0.474192	1.52068
0.54	0.224754	-0.0358509	0.0139767	0.384421	1.06283	-0.189418	-0.425009	0.111612	-0.0843578	0.0795972	0.351083	0.226786	-0.0929217	0.227324	-0.0717187	-0.328693	0.199267	0.197758	0.278427	-0.0974516	-0.476002	-0.000551211	0.16072	0.187658	-0.282359	-0.110002	1.05805	1.49992	-0.277357	-0.0491983	-0.165365	0.47142	1.51912
0.55	0.224462	-0.0324873	0.0140067	0.398663	1.06058	-0.190244	-0.437033	0.106251	-0.0967229	0.0861835	0.365243	0.242332	-0.0929648	0.222611	-0.0575771	-0.338142	0.155531	0.208819	0.313196	-0.0974355	-0.474817	-0.00402679	0.16309	0.192802	-0.28839	-0.109174	1.06969	1.5072	-0.292848	-0.0470482	-0.16569	0.468709	1.51673
0.56	0.22441	-0.0293193	0.0132494	0.413097	1.05841	-0.191075	-0.448556	0.100476	-0.109254	0.0942086	0.378114	0.258321	-0.0930079	0.217384	-0.0439128	-0.344814	0.117321	0.218457	0.33918	-0.0974194	-0.473663	-0.00759119	0.166709	0.19614	-0.294099	-0.109656	1.08123	1.51453	-0.307216	-0.0452118	-0.165435	0.465827	1.51391
0.57	0.224634	-0.0264176	0.0115796	0.427723	1.05635	-0.191874	-0.459576	0.0942771	-0.121525	0.103729	0.389382	0.274402	-0.0930511	0.211846	-0.0312874	-0.349349	0.085735	0.226158	0.356772	-0.0974033	-0.472547	-0.0112589	0.171604	0.197627	-0.299378	-0.111387	1.09261	1.52167	-0.320381	-0.0436196	-0.164987	0.462695	1.51102
0.58	0.225152	-0.0237567	0.00896658	0.442545	1.05444	-0.192614	-0.470054	0.0875783	-0.133204	0.114834	0.398776	0.290169	-0.0930943	0.206164	-0.0200575	-0.352428	0.0615158	0.231406	0.367071	-0.0973871	-0.471468	-0.0151052	0.17763	0.197261	-0.304082	-0.114248	1.10373	1.52842	-0.332315	-0.0422058	-0.164747	0.459352	1.50832
0.59	0.225973	-0.0212048	0.00546319	0.457562	1.05267	-0.19328	-0.479902	0.0802231	-0.144093	0.127674	0.406066	0.305198	-0.0931374	0.2004	-0.0103058	-0.354614	0.0448728	0.233637	0.371508	-0.0973709	-0.47042	-0.0192775	0.184492	0.195085	-0.308045	-0.118086	1.11444	1.53465	-0.34303	-0.0409134	-0.165068	0.455917	1.50593
